<svg width="27" height="46" viewBox="0 0 27 46" fill="none" xmlns="http://www.w3.org/2000/svg">
<path d="M0 14.502C0 9.932 1.569 6.155 4.716 3.164C6.935 1.055 9.891 0 13.593 0C17.658 0 20.806 1.055 23.026 3.164C25.426 5.449 26.632 8.35 26.632 11.865C26.632 14.856 25.523 17.402 23.303 19.511C22.008 20.741 20.251 22.411 18.032 24.521C16.368 26.103 15.535 28.476 15.535 31.64H10.542C10.542 27.776 11.189 24.875 12.484 22.939C13.408 21.533 15.162 19.602 17.755 17.138C19.234 15.732 19.975 14.065 19.975 12.128C19.975 9.667 19.325 7.821 18.033 6.591C16.924 5.536 15.352 5.009 13.317 5.009C11.652 5.009 10.265 5.536 9.156 6.591C7.306 8.349 6.382 10.986 6.382 14.501H0V14.502ZM9.987 39.287H16.091V45.615H9.987V39.287Z" fill="black"/>
</svg>
